<svg width="154" height="50" viewBox="0 0 154 50" fill="none" xmlns="http://www.w3.org/2000/svg">
<g clip-path="url(#clip0_913_1132)">
<path d="M18.5006 28.1909C18.5627 29.882 18.3015 31.5693 17.7314 33.1611C16.9277 34.8388 15.5963 36.2018 13.9445 37.0378C13.5244 37.229 13.0845 37.3723 12.6329 37.4653C12.0629 37.5776 11.4865 37.6539 10.9071 37.6939C10.2365 37.6939 9.40814 37.7834 8.41211 37.8132V32.6343H8.9052C9.43773 32.6343 9.89136 32.5647 10.2267 32.5249C10.5343 32.5019 10.8385 32.4452 11.1339 32.3559C11.3616 32.277 11.5773 32.1666 11.7749 32.0279C11.9713 31.8803 12.15 31.7101 12.3075 31.5209C12.575 31.0967 12.7684 30.6293 12.8795 30.1392C13.033 29.5217 13.1092 28.8872 13.1063 28.2505V4.27441H18.5006V28.1909Z" fill="#237A37"/>
<path d="M44.2594 30.6064C43.8775 31.6753 43.339 32.6805 42.6618 33.5886C42.0079 34.4686 41.215 35.2342 40.3147 35.8549C39.405 36.4858 38.4082 36.9782 37.3562 37.3162C34.8924 38.1236 32.2215 37.9999 29.8415 36.9682C27.2148 35.7962 25.1255 33.6653 23.9936 31.004C23.4116 29.6524 23.1161 28.1931 23.1257 26.7197C23.1187 25.2705 23.3976 23.8344 23.9461 22.4948C24.4946 21.1552 25.3019 19.9389 26.3209 18.9166C27.3154 17.9092 28.4943 17.1058 29.7922 16.5508C31.125 15.9734 32.5625 15.6823 34.013 15.6959C35.504 15.6801 36.9819 15.978 38.3522 16.5706C39.7051 17.1743 40.9279 18.0387 41.9517 19.1153C42.7563 19.9688 43.4219 20.9451 43.9241 22.008C44.3786 22.9371 44.6276 23.9546 44.6538 24.9901C44.6764 25.847 44.4053 26.6856 43.8862 27.3646C43.3671 28.0436 42.6316 28.5215 41.8038 28.7178C40.9581 28.8403 40.1037 28.8902 39.2496 28.8669H28.3623C28.7995 30.0649 29.5826 31.1036 30.6108 31.849C31.9275 32.7556 33.5367 33.1243 35.1129 32.8808C36.6892 32.6372 38.1148 31.7994 39.1017 30.5369L44.2594 30.6064ZM39.8117 24.513C39.424 23.3532 38.6686 22.3542 37.6619 21.67C36.6407 20.9468 35.4188 20.5676 34.1708 20.5865C32.928 20.5646 31.7088 20.9299 30.6797 21.6327C29.6507 22.3355 28.862 23.3414 28.4215 24.513H39.8117Z" fill="#237A37"/>
<path d="M87.9173 39.2744C88.0676 41.7926 87.3422 44.2849 85.866 46.3221C85.025 47.4203 83.9422 48.3063 82.703 48.9102C81.4639 49.514 80.1024 49.819 78.7262 49.8012C77.5003 49.8099 76.2855 49.5663 75.1562 49.0855C74.0563 48.6134 73.0531 47.9392 72.1977 47.0974C71.3644 46.2716 70.695 45.2932 70.2253 44.2147C69.7458 43.1258 69.5005 41.9468 69.5054 40.7555V40.2684H74.3475C74.3282 41.5496 74.7735 42.7939 75.6 43.7674C75.999 44.1837 76.4817 44.5091 77.0159 44.7217C77.55 44.9343 78.123 45.0292 78.6966 45C79.4849 45.0029 80.2602 44.7972 80.945 44.4036C81.6146 44.0299 82.1678 43.4758 82.5426 42.8032C82.7417 42.3661 82.8842 41.9051 82.9667 41.4314C83.0886 40.7761 83.1447 40.11 83.1343 39.4433V36.6899C82.4804 37.0769 81.7815 37.3807 81.0535 37.5944C80.341 37.7736 79.6082 37.8572 78.8741 37.843C77.4268 37.8622 75.9972 37.5207 74.7124 36.8489C73.4411 36.1715 72.3438 35.2049 71.5074 34.0258C70.3081 32.0661 69.7302 29.7845 69.8506 27.4851V16.0537H74.7815V27.6839C74.6885 29.0918 75.0632 30.4907 75.8465 31.6601C76.2259 32.0921 76.692 32.438 77.2139 32.6749C77.7358 32.9118 78.3017 33.0343 78.8741 33.0343C79.4465 33.0343 80.0123 32.9118 80.5342 32.6749C81.0562 32.438 81.5222 32.0921 81.9016 31.6601C82.6695 30.5583 83.0449 29.2269 82.9667 27.8827V16.0537H87.8975L87.9173 39.2744Z" fill="#237A37"/>
<path d="M94.1597 37.5547V13.1312C94.0841 11.3888 94.3661 9.64936 94.9881 8.02183C95.6101 6.73858 96.6272 5.6925 97.8874 5.03973C99.4722 4.25207 101.231 3.88918 102.996 3.98605H103.449V8.81705H102.897C101.848 8.7091 100.795 8.99195 99.9387 9.61227C99.3112 10.4703 99.0261 11.5346 99.1399 12.5944V16.0437H103.44V20.8747H99.1399V37.5447L94.1597 37.5547Z" fill="#237A37"/>
<path d="M111.585 16.0537H106.645V37.5547H111.585V16.0537Z" fill="#237A37"/>
<path d="M129.524 21.5406C128.692 21.0434 127.801 20.6559 126.871 20.3876C125.997 20.1262 125.091 19.989 124.179 19.9801C123.344 19.9326 122.514 20.1442 121.802 20.5864C121.527 20.7639 121.301 21.0098 121.148 21.3006C120.994 21.5913 120.917 21.9171 120.924 22.2464C120.929 22.564 121.034 22.8717 121.224 23.1254C121.414 23.379 121.678 23.5655 121.98 23.658L122.423 23.8369L122.926 24.0059C123.124 24.0755 123.41 24.165 123.774 24.2644L125.323 24.7116C126.096 24.9186 126.849 25.1982 127.571 25.5466C128.087 25.8021 128.559 26.1376 128.972 26.5407C129.547 27.101 129.998 27.7788 130.293 28.5287C130.611 29.3003 130.772 30.1286 130.766 30.9641C130.783 31.9585 130.588 32.9448 130.194 33.8568C129.815 34.7127 129.26 35.4782 128.567 36.1033C127.838 36.7595 126.981 37.257 126.052 37.5646C124.994 37.9052 123.889 38.073 122.778 38.0616C121.739 38.0642 120.702 37.9643 119.682 37.7633C118.576 37.5202 117.491 37.1878 116.437 36.7693V31.7295C118.428 32.798 120.625 33.4186 122.877 33.5486C123.694 33.5956 124.506 33.3911 125.204 32.9622C125.467 32.7822 125.678 32.536 125.816 32.2482C125.954 31.9604 126.016 31.641 125.993 31.322C125.999 31.048 125.955 30.7753 125.865 30.5168C125.767 30.259 125.582 30.0443 125.342 29.9105C124.995 29.7002 124.628 29.5238 124.248 29.3836C123.642 29.1522 123.023 28.9597 122.394 28.807C120.625 28.4271 118.984 27.5915 117.631 26.3817C117.13 25.8541 116.741 25.2298 116.487 24.5464C116.232 23.8629 116.118 23.1347 116.151 22.4055C116.142 21.4525 116.34 20.509 116.733 19.6421C117.101 18.8099 117.646 18.07 118.331 17.4751C119.048 16.8499 119.878 16.3706 120.776 16.0636C121.781 15.725 122.834 15.557 123.893 15.5665C124.782 15.5611 125.669 15.6343 126.546 15.7852C127.547 15.9864 128.535 16.2486 129.504 16.5705L129.524 21.5406Z" fill="#237A37"/>
<path d="M148.498 37.5546V26.4811C148.514 25.6196 148.458 24.7584 148.33 23.9065C148.227 23.3422 148.033 22.7984 147.758 22.2961C147.407 21.7797 146.936 21.3568 146.387 21.0636C145.836 20.7521 145.215 20.5878 144.583 20.5864C143.916 20.5864 143.259 20.7502 142.669 21.0636C142.092 21.3548 141.589 21.7767 141.2 22.2961C140.889 22.8061 140.672 23.3685 140.559 23.9562C140.409 24.7689 140.343 25.595 140.362 26.4214V37.5546H135.431V3.97607H140.362V16.9582C141.057 16.5521 141.804 16.2412 142.581 16.0337C143.305 15.8459 144.051 15.7524 144.8 15.7554C146.055 15.754 147.295 16.0359 148.429 16.5804C149.57 17.1176 150.58 17.9016 151.387 18.8767C152.117 19.7495 152.661 20.7647 152.985 21.8588C153.346 23.1791 153.515 24.5452 153.488 25.9145V37.5447L148.498 37.5546Z" fill="#237A37"/>
<path d="M53.3421 14.8708H48.4014V37.5448H53.3421V14.8708Z" fill="#237A37"/>
<path d="M63.8841 14.8708H58.9434V37.5448H63.8841V14.8708Z" fill="#237A37"/>
<path d="M69.9688 14.0855C69.9688 14.3539 69.9688 14.6124 69.9688 14.8807H42.0503C42.0503 14.6124 42.0503 14.3539 42.0503 14.0855C42.0503 10.3498 43.5226 6.76709 46.1432 4.12555C48.7638 1.484 52.3182 0 56.0243 0C59.7305 0 63.2848 1.484 65.9055 4.12555C68.5261 6.76709 69.9984 10.3498 69.9984 14.0855H69.9688Z" fill="#237A37"/>
<path d="M53.3421 11.4414H48.4014V14.8708H53.3421V11.4414Z" fill="white"/>
<path d="M63.8841 11.4414H58.9434V14.8708H63.8841V11.4414Z" fill="white"/>
<path d="M111.497 8.37975C111.909 8.79721 112.19 9.32859 112.303 9.90678C112.417 10.485 112.357 11.0841 112.133 11.6284C111.909 12.1727 111.53 12.6378 111.043 12.965C110.557 13.2922 109.986 13.4669 109.401 13.4669C108.816 13.4669 108.245 13.2922 107.758 12.965C107.272 12.6378 106.893 12.1727 106.669 11.6284C106.444 11.0841 106.385 10.485 106.498 9.90678C106.612 9.32859 106.893 8.79721 107.305 8.37975C107.58 8.10174 107.907 7.88114 108.266 7.73063C108.626 7.58011 109.012 7.50269 109.401 7.50269C109.79 7.50269 110.176 7.58011 110.535 7.73063C110.895 7.88114 111.222 8.10174 111.497 8.37975Z" fill="#237A37"/>
<path d="M5.0492 33.3101C5.46333 33.727 5.74546 34.2584 5.85992 34.837C5.97437 35.4156 5.91599 36.0153 5.69218 36.5605C5.46837 37.1056 5.08918 37.5715 4.60257 37.8994C4.11597 38.2272 3.54382 38.4022 2.95852 38.4022C2.37323 38.4022 1.80108 38.2272 1.31448 37.8994C0.827875 37.5715 0.44867 37.1056 0.224855 36.5605C0.00104018 36.0153 -0.0573361 35.4156 0.0571172 34.837C0.171571 34.2584 0.453708 33.727 0.867832 33.3101C1.42255 32.7517 2.17452 32.438 2.95852 32.438C3.74253 32.438 4.49448 32.7517 5.0492 33.3101Z" fill="#237A37"/>
<path d="M94.0513 42.485H95.1656C95.2685 42.4796 95.3699 42.5114 95.4516 42.5744C95.5313 42.632 95.5929 42.7113 95.6291 42.8031L97.3845 47.3855C97.4437 47.5346 97.493 47.6937 97.5522 47.8727L97.7001 48.4293C97.7001 48.2405 97.779 48.0516 97.8283 47.8727C97.8776 47.6937 97.9368 47.5346 97.996 47.3855L99.7415 42.8031C99.7762 42.7159 99.8342 42.6402 99.9091 42.5844C99.9921 42.5154 100.098 42.48 100.205 42.485H101.339L98.3806 49.9999H97.1281L94.0513 42.485Z" fill="url(#paint0_linear_913_1132)"/>
<path d="M105.648 50H104.297V42.4851H105.688L105.648 50Z" fill="url(#paint1_linear_913_1132)"/>
<path d="M114.159 42.4851V43.5984H110.856V45.6859H113.459V46.7595H110.856V48.8867H114.159V50H109.465V42.4851H114.159Z" fill="url(#paint2_linear_913_1132)"/>
<path d="M122.778 42.4851V43.6382H120.53V50H119.149V43.6382H116.901V42.4851H122.778Z" fill="url(#paint3_linear_913_1132)"/>
<path d="M126.802 42.4951H126.92L127.019 42.5647L127.118 42.6839L131.062 47.7137C131.062 47.5945 131.062 47.4752 131.062 47.3559C131.062 47.2366 131.062 47.1273 131.062 47.0279V42.4553H132.285V49.9702H131.575C131.484 49.9918 131.39 49.9918 131.299 49.9702C131.218 49.9217 131.148 49.8575 131.092 49.7814L127.196 44.8112C127.196 44.9205 127.196 45.0299 127.196 45.1392C127.196 45.2486 127.196 45.348 127.196 45.4374V50.0498H125.974V42.5349H126.851L126.802 42.4951Z" fill="url(#paint4_linear_913_1132)"/>
<path d="M142.423 50.01H141.348C141.241 50.0108 141.137 49.9758 141.052 49.9106C140.981 49.8515 140.923 49.7767 140.885 49.6919L140.332 48.1512H137.246L136.683 49.6919C136.652 49.7756 136.597 49.8481 136.526 49.9007C136.443 49.9696 136.337 50.005 136.23 50.0001H135.145L138.104 42.4951H139.514L142.423 50.01ZM137.601 47.1671H139.977L139.07 44.6721C139.015 44.5429 138.969 44.41 138.932 44.2745C138.883 44.1254 138.833 43.9663 138.784 43.7874L138.646 44.2745C138.597 44.4335 138.547 44.5627 138.508 44.682L137.601 47.1671Z" fill="url(#paint5_linear_913_1132)"/>
<path d="M149.267 47.2267L149.415 47.5845L149.563 47.2167C149.613 47.0979 149.669 46.9818 149.73 46.8688L151.93 42.7038C151.954 42.6606 151.984 42.6205 152.018 42.5845C152.044 42.5528 152.079 42.5288 152.117 42.515H152.235H153.448V50.0299H152.226V45.169C152.226 45.0796 152.226 44.9802 152.226 44.8808C152.226 44.7814 152.226 44.6621 152.226 44.5527L149.967 48.8072C149.927 48.902 149.86 48.9822 149.773 49.0372C149.687 49.0923 149.586 49.1195 149.484 49.1154H149.287C149.184 49.1188 149.082 49.0914 148.994 49.0366C148.906 48.9817 148.836 48.9019 148.794 48.8072L146.516 44.5328V44.8708C146.516 44.9802 146.516 45.0796 146.516 45.169V50.0299H145.293V42.515H146.496C146.538 42.5093 146.582 42.5093 146.624 42.515C146.663 42.5272 146.698 42.5516 146.723 42.5845L146.802 42.7038L149.03 46.8788C149.116 46.9902 149.195 47.1063 149.267 47.2267Z" fill="url(#paint6_linear_913_1132)"/>
</g>
<defs>
<linearGradient id="paint0_linear_913_1132" x1="93.8343" y1="46.1032" x2="152.976" y2="47.561" gradientUnits="userSpaceOnUse">
<stop stop-color="#E48D05"/>
<stop offset="0.14" stop-color="#F9B642"/>
<stop offset="0.27" stop-color="#F2AB36"/>
<stop offset="0.41" stop-color="#F9B642"/>
<stop offset="0.53" stop-color="#FFEA75"/>
<stop offset="0.65" stop-color="#F2AB36"/>
<stop offset="0.77" stop-color="#F9B642"/>
<stop offset="0.87" stop-color="#E48D05"/>
<stop offset="1" stop-color="#F9B642"/>
</linearGradient>
<linearGradient id="paint1_linear_913_1132" x1="93.8439" y1="45.9642" x2="152.975" y2="47.422" gradientUnits="userSpaceOnUse">
<stop stop-color="#E48D05"/>
<stop offset="0.14" stop-color="#F9B642"/>
<stop offset="0.27" stop-color="#F2AB36"/>
<stop offset="0.41" stop-color="#F9B642"/>
<stop offset="0.53" stop-color="#FFEA75"/>
<stop offset="0.65" stop-color="#F2AB36"/>
<stop offset="0.77" stop-color="#F9B642"/>
<stop offset="0.87" stop-color="#E48D05"/>
<stop offset="1" stop-color="#F9B642"/>
</linearGradient>
<linearGradient id="paint2_linear_913_1132" x1="93.8442" y1="45.7952" x2="152.975" y2="47.253" gradientUnits="userSpaceOnUse">
<stop stop-color="#E48D05"/>
<stop offset="0.14" stop-color="#F9B642"/>
<stop offset="0.27" stop-color="#F2AB36"/>
<stop offset="0.41" stop-color="#F9B642"/>
<stop offset="0.53" stop-color="#FFEA75"/>
<stop offset="0.65" stop-color="#F2AB36"/>
<stop offset="0.77" stop-color="#F9B642"/>
<stop offset="0.87" stop-color="#E48D05"/>
<stop offset="1" stop-color="#F9B642"/>
</linearGradient>
<linearGradient id="paint3_linear_913_1132" x1="93.8541" y1="45.5666" x2="152.985" y2="47.0244" gradientUnits="userSpaceOnUse">
<stop stop-color="#E48D05"/>
<stop offset="0.14" stop-color="#F9B642"/>
<stop offset="0.27" stop-color="#F2AB36"/>
<stop offset="0.41" stop-color="#F9B642"/>
<stop offset="0.53" stop-color="#FFEA75"/>
<stop offset="0.65" stop-color="#F2AB36"/>
<stop offset="0.77" stop-color="#F9B642"/>
<stop offset="0.87" stop-color="#E48D05"/>
<stop offset="1" stop-color="#F9B642"/>
</linearGradient>
<linearGradient id="paint4_linear_913_1132" x1="93.8541" y1="45.3679" x2="152.985" y2="46.8256" gradientUnits="userSpaceOnUse">
<stop stop-color="#E48D05"/>
<stop offset="0.14" stop-color="#F9B642"/>
<stop offset="0.27" stop-color="#F2AB36"/>
<stop offset="0.41" stop-color="#F9B642"/>
<stop offset="0.53" stop-color="#FFEA75"/>
<stop offset="0.65" stop-color="#F2AB36"/>
<stop offset="0.77" stop-color="#F9B642"/>
<stop offset="0.87" stop-color="#E48D05"/>
<stop offset="1" stop-color="#F9B642"/>
</linearGradient>
<linearGradient id="paint5_linear_913_1132" x1="93.8638" y1="45.1591" x2="152.995" y2="46.6169" gradientUnits="userSpaceOnUse">
<stop stop-color="#E48D05"/>
<stop offset="0.14" stop-color="#F9B642"/>
<stop offset="0.27" stop-color="#F2AB36"/>
<stop offset="0.41" stop-color="#F9B642"/>
<stop offset="0.53" stop-color="#FFEA75"/>
<stop offset="0.65" stop-color="#F2AB36"/>
<stop offset="0.77" stop-color="#F9B642"/>
<stop offset="0.87" stop-color="#E48D05"/>
<stop offset="1" stop-color="#F9B642"/>
</linearGradient>
<linearGradient id="paint6_linear_913_1132" x1="93.864" y1="44.8609" x2="153.005" y2="46.3187" gradientUnits="userSpaceOnUse">
<stop stop-color="#E48D05"/>
<stop offset="0.14" stop-color="#F9B642"/>
<stop offset="0.27" stop-color="#F2AB36"/>
<stop offset="0.41" stop-color="#F9B642"/>
<stop offset="0.53" stop-color="#FFEA75"/>
<stop offset="0.65" stop-color="#F2AB36"/>
<stop offset="0.77" stop-color="#F9B642"/>
<stop offset="0.87" stop-color="#E48D05"/>
<stop offset="1" stop-color="#F9B642"/>
</linearGradient>
<clipPath id="clip0_913_1132">
<rect width="153.448" height="50" fill="white"/>
</clipPath>
</defs>
</svg>
